<svg width="40" height="80" viewBox="0 0 40 80" fill="none" xmlns="http://www.w3.org/2000/svg">
<g filter="url(#filter0_b_638_3206)">
<path d="M0 80C5.25288 80 10.4543 78.9654 15.3073 76.9552C20.1604 74.945 24.5699 71.9986 28.2843 68.2843C31.9986 64.5699 34.945 60.1604 36.9552 55.3073C38.9654 50.4543 40 45.2529 40 40C40 34.7471 38.9654 29.5457 36.9552 24.6927C34.945 19.8396 31.9986 15.4301 28.2843 11.7157C24.5699 8.00138 20.1604 5.05501 15.3073 3.04482C10.4543 1.03463 5.25287 -4.59221e-07 -3.8147e-06 0L0 40L0 80Z" fill="black"/>
<path d="M15.116 76.4932C10.4777 78.4145 5.51704 79.4333 0.5 79.4968L0.5 40L0.499996 0.503164C5.51703 0.566672 10.4777 1.5855 15.116 3.50676C19.9084 5.49182 24.2628 8.40137 27.9307 12.0693C31.5986 15.7372 34.5082 20.0916 36.4932 24.884C38.4783 29.6764 39.5 34.8128 39.5 40C39.5 45.1872 38.4783 50.3236 36.4932 55.116C34.5082 59.9084 31.5986 64.2628 27.9307 67.9307C24.2628 71.5986 19.9084 74.5082 15.116 76.4932Z" stroke="url(#paint0_linear_638_3206)"/>
</g>
<path d="M20.7394 34.2303C20.6664 34.3027 20.6085 34.3888 20.569 34.4837C20.5294 34.5786 20.5091 34.6803 20.5091 34.7831C20.5091 34.8859 20.5294 34.9877 20.569 35.0826C20.6085 35.1774 20.6664 35.2636 20.7394 35.3359L24.321 38.9175H13.7786C13.5721 38.9175 13.3741 38.9996 13.228 39.1456C13.082 39.2916 13 39.4897 13 39.6962C13 39.9027 13.082 40.1007 13.228 40.2467C13.3741 40.3927 13.5721 40.4748 13.7786 40.4748H24.3054L20.7394 44.033C20.5944 44.1789 20.513 44.3762 20.513 44.5819C20.513 44.7876 20.5944 44.985 20.7394 45.1309C20.8853 45.2759 21.0826 45.3573 21.2883 45.3573C21.494 45.3573 21.6913 45.2759 21.8372 45.1309L26.7892 40.1789C26.8558 40.1149 26.9089 40.0382 26.9451 39.9532C26.9813 39.8683 27 39.7768 27 39.6845C27 39.5921 26.9813 39.5007 26.9451 39.4157C26.9089 39.3308 26.8558 39.254 26.7892 39.1901L21.845 34.2303C21.7726 34.1573 21.6865 34.0994 21.5916 34.0599C21.4968 34.0204 21.395 34 21.2922 34C21.1894 34 21.0876 34.0204 20.9928 34.0599C20.8979 34.0994 20.8118 34.1573 20.7394 34.2303Z" fill="white"/>
<defs>
<filter id="filter0_b_638_3206" x="-4" y="-4" width="48" height="88" filterUnits="userSpaceOnUse" color-interpolation-filters="sRGB">
<feFlood flood-opacity="0" result="BackgroundImageFix"/>
<feGaussianBlur in="BackgroundImageFix" stdDeviation="2"/>
<feComposite in2="SourceAlpha" operator="in" result="effect1_backgroundBlur_638_3206"/>
<feBlend mode="normal" in="SourceGraphic" in2="effect1_backgroundBlur_638_3206" result="shape"/>
</filter>
<linearGradient id="paint0_linear_638_3206" x1="1.16881e-06" y1="40" x2="40" y2="40" gradientUnits="userSpaceOnUse">
<stop offset="0.151042" stop-color="white" stop-opacity="0"/>
<stop offset="1" stop-color="white" stop-opacity="0.4"/>
</linearGradient>
</defs>
</svg>
